<?xml version="1.0" encoding="utf-8"?>
<!-- Generator: Adobe Illustrator 19.0.0, SVG Export Plug-In . SVG Version: 6.00 Build 0)  -->
<svg version="1.1" xmlns="http://www.w3.org/2000/svg" xmlns:xlink="http://www.w3.org/1999/xlink" x="0px" y="0px"
	 viewBox="0 0 50 50" style="enable-background:new 0 0 50 50;" xml:space="preserve">
<style type="text/css">
	.st0{display:none;}
	.st1{display:inline;}
	.st2{fill:#030303;}
</style>
<g id="Слой_1" class="st0">
	<g id="XMLID_2630_" class="st1">
		<g id="XMLID_2620_">
			<path id="XMLID_4_" d="M21.4,41.6C10,41.6,0.7,32.3,0.7,20.9C0.7,9.5,10,0.2,21.4,0.2c11.4,0,20.7,9.3,20.7,20.7
				C42.1,32.3,32.8,41.6,21.4,41.6z M21.4,2.2c-10.3,0-18.7,8.4-18.7,18.7c0,10.3,8.4,18.7,18.7,18.7c10.3,0,18.7-8.4,18.7-18.7
				C40.1,10.6,31.7,2.2,21.4,2.2z"/>
		</g>
		<g id="XMLID_2625_">
			<path id="XMLID_2_" class="st2" d="M35.5,36.6l12.2,12.7c0.2,0.2,0.4,0.3,0.6,0.3c0.2,0,0.4-0.1,0.6-0.2c0.3-0.3,0.3-0.8,0-1.2
				L36.7,35.5"/>
			<path id="XMLID_3_" d="M48.2,49.8c-0.3,0-0.6-0.1-0.8-0.3L35.3,36.8l0.4-0.3l12.2,12.7c0.2,0.2,0.6,0.2,0.8,0
				c0.2-0.2,0.2-0.6,0-0.8L36.5,35.7l0.4-0.3L49,48c0.4,0.4,0.4,1.1,0,1.5C48.8,49.7,48.5,49.8,48.2,49.8z"/>
		</g>
	</g>
</g>
<g id="Слой_2" class="st0">
	<g id="XMLID_2633_" class="st1">
		<g id="XMLID_2627_">
			<path id="XMLID_10_" d="M25,49.7C11.4,49.7,0.3,38.6,0.3,25S11.4,0.3,25,0.3c13.6,0,24.7,11.1,24.7,24.7S38.6,49.7,25,49.7z
				 M25,2.4C12.6,2.4,2.4,12.6,2.4,25S12.6,47.6,25,47.6c12.4,0,22.6-10.1,22.6-22.6S37.4,2.4,25,2.4z"/>
		</g>
		<g id="XMLID_2629_">
			<path id="XMLID_8_" class="st2" d="M18.2,21.2c0.1,0,0.1,0.1,0.2,0.1c0.1,0,0.2,0,0.2-0.1c0,0,0.7-0.5,1.4-1.2
				c1-1,1.5-1.9,1.5-2.7c0-0.5-0.2-1-0.5-1.5c-0.4-0.5-0.8-0.8-1.3-0.8c-0.5,0-0.9,0.2-1.3,0.6c-0.3-0.4-0.8-0.6-1.3-0.6
				c-0.5,0-1,0.3-1.3,0.8c-0.3,0.4-0.5,1-0.5,1.5C15.3,19.2,18.1,21.1,18.2,21.2z"/>
		</g>
		<g id="XMLID_2628_">
			<path id="XMLID_7_" class="st2" d="M25,37.6c4.9,0,9.3-2.8,11.2-7.1c0.3-0.7,0-1.6-0.8-1.9c-0.7-0.3-1.6,0-1.9,0.8
				c-1.4,3.3-4.7,5.4-8.5,5.4c-3.8,0-7.2-2.1-8.5-5.4c-0.2-0.6-0.8-0.9-1.3-0.9c-0.2,0-0.4,0-0.6,0.1c-0.7,0.3-1.1,1.2-0.8,1.9
				C15.6,34.8,20,37.6,25,37.6z"/>
		</g>
		<g id="XMLID_2626_">
			<path id="XMLID_1_" class="st2" d="M31.9,21.2c0.1,0,0.1,0.1,0.2,0.1c0.1,0,0.2,0,0.2-0.1c0,0,0.7-0.5,1.4-1.2
				c1-1,1.5-1.9,1.5-2.7c0-0.5-0.2-1-0.5-1.5c-0.4-0.5-0.8-0.8-1.3-0.8c-0.5,0-0.9,0.2-1.3,0.6c-0.3-0.4-0.8-0.6-1.3-0.6
				c-0.5,0-1,0.3-1.3,0.8c-0.3,0.4-0.5,1-0.5,1.5C29,19.2,31.7,21.1,31.9,21.2z"/>
		</g>
	</g>
</g>
<g id="Слой_3">
	<g id="XMLID_2621_">
		<path id="XMLID_2619_" d="M31.2,14.4c0.5,0,1-0.4,1-1c0-0.5-0.4-1-1-1H17.7c-0.5,0-1,0.4-1,1c0,0.5,0.4,1,1,1H31.2z"/>
		<path id="XMLID_2618_" d="M42.8,12.4l-4.7,0c-0.5,0-1,0.4-1,1c0,0.5,0.4,1,1,1l3.7,0l2,33.3H6.2l2.1-33.3l3.3,0c0.5,0,1-0.4,1-1
			c0-0.5-0.4-1-1-1l-4.2,0c-0.5,0-1,0.4-1,1L4.2,48.7c0,0.5,0.4,1,1,1h39.6c0.5,0,1-0.4,1-1l-2-35.3C43.8,12.9,43.4,12.4,42.8,12.4z
			"/>
		<path id="XMLID_2617_" d="M34.6,16.6c0.5,0,1-0.4,1-1V8.5c0-4.5-4.9-8.2-10.9-8.2c-6,0-10.8,3.7-10.8,8.2v7.2c0,0.5,0.4,1,1,1
			s1-0.4,1-1V8.5c0-3.4,4-6.2,8.9-6.2c4.9,0,8.9,2.8,8.9,6.2v7.2C33.6,16.2,34,16.6,34.6,16.6z"/>
		<path id="XMLID_2616_" d="M12.3,18.2c0,1.4,1.1,2.5,2.5,2.5s2.5-1.1,2.5-2.5c0-0.5-0.4-1-1-1c-0.5,0-1,0.4-1,1
			c0,0.3-0.3,0.6-0.6,0.6c-0.3,0-0.6-0.3-0.6-0.6c0-0.5-0.4-1-1-1S12.3,17.6,12.3,18.2z"/>
		<path id="XMLID_2606_" d="M34.6,20.7c1.4,0,2.5-1.1,2.5-2.5c0-0.5-0.4-1-1-1s-1,0.4-1,1c0,0.3-0.3,0.6-0.6,0.6S34,18.5,34,18.2
			c0-0.5-0.4-1-1-1c-0.5,0-1,0.4-1,1C32,19.6,33.2,20.7,34.6,20.7z"/>
	</g>
</g>
</svg>
