<?xml version="1.0" encoding="utf-8"?>
<!-- Generator: Adobe Illustrator 19.0.0, SVG Export Plug-In . SVG Version: 6.00 Build 0)  -->
<svg version="1.1" id="Слой_1" xmlns="http://www.w3.org/2000/svg" xmlns:xlink="http://www.w3.org/1999/xlink" x="0px" y="0px"
	 viewBox="-224 226 50 50" style="enable-background:new -224 226 50 50;" xml:space="preserve">
<style type="text/css">
	.st0{display:none;}
	.st1{display:inline;}
	.st2{fill:#fff;}
	.st3{fill:#fff;}
</style>
<g id="Слой_1_1_" class="st0">
	<g id="XMLID_2630_" class="st1">
		<g id="XMLID_2620_">
			<path id="XMLID_4_" d="M-426.6,493.6c-11.4,0-20.7-9.3-20.7-20.7c0-11.4,9.3-20.7,20.7-20.7s20.7,9.3,20.7,20.7
				C-405.9,484.3-415.2,493.6-426.6,493.6z M-426.6,454.2c-10.3,0-18.7,8.4-18.7,18.7c0,10.3,8.4,18.7,18.7,18.7s18.7-8.4,18.7-18.7
				C-407.9,462.6-416.3,454.2-426.6,454.2z"/>
		</g>
		<g id="XMLID_2625_">
			<path id="XMLID_2_" class="st2" d="M-412.5,488.6l12.2,12.7c0.2,0.2,0.4,0.3,0.6,0.3s0.4-0.1,0.6-0.2c0.3-0.3,0.3-0.8,0-1.2
				l-12.2-12.7"/>
			<path id="XMLID_3_" d="M-399.8,501.8c-0.3,0-0.6-0.1-0.8-0.3l-12.1-12.7l0.4-0.3l12.2,12.7c0.2,0.2,0.6,0.2,0.8,0s0.2-0.6,0-0.8
				l-12.2-12.7l0.4-0.3L-399,500c0.4,0.4,0.4,1.1,0,1.5C-399.2,501.7-399.5,501.8-399.8,501.8z"/>
		</g>
	</g>
</g>
<g id="Слой_2" class="st0">
	<g id="XMLID_2633_" class="st1">
		<g id="XMLID_2627_">
			<path id="XMLID_10_" d="M-423,501.7c-13.6,0-24.7-11.1-24.7-24.7c0-13.6,11.1-24.7,24.7-24.7s24.7,11.1,24.7,24.7
				C-398.3,490.6-409.4,501.7-423,501.7z M-423,454.4c-12.4,0-22.6,10.2-22.6,22.6s10.2,22.6,22.6,22.6s22.6-10.1,22.6-22.6
				S-410.6,454.4-423,454.4z"/>
		</g>
		<g id="XMLID_2629_">
			<path id="XMLID_8_" class="st2" d="M-429.8,473.2c0.1,0,0.1,0.1,0.2,0.1s0.2,0,0.2-0.1c0,0,0.7-0.5,1.4-1.2c1-1,1.5-1.9,1.5-2.7
				c0-0.5-0.2-1-0.5-1.5c-0.4-0.5-0.8-0.8-1.3-0.8s-0.9,0.2-1.3,0.6c-0.3-0.4-0.8-0.6-1.3-0.6s-1,0.3-1.3,0.8
				c-0.3,0.4-0.5,1-0.5,1.5C-432.7,471.2-429.9,473.1-429.8,473.2z"/>
		</g>
		<g id="XMLID_2628_">
			<path id="XMLID_7_" class="st2" d="M-423,489.6c4.9,0,9.3-2.8,11.2-7.1c0.3-0.7,0-1.6-0.8-1.9c-0.7-0.3-1.6,0-1.9,0.8
				c-1.4,3.3-4.7,5.4-8.5,5.4s-7.2-2.1-8.5-5.4c-0.2-0.6-0.8-0.9-1.3-0.9c-0.2,0-0.4,0-0.6,0.1c-0.7,0.3-1.1,1.2-0.8,1.9
				C-432.4,486.8-428,489.6-423,489.6z"/>
		</g>
		<g id="XMLID_2626_">
			<path id="XMLID_1_" class="st2" d="M-416.1,473.2c0.1,0,0.1,0.1,0.2,0.1c0.1,0,0.2,0,0.2-0.1c0,0,0.7-0.5,1.4-1.2
				c1-1,1.5-1.9,1.5-2.7c0-0.5-0.2-1-0.5-1.5c-0.4-0.5-0.8-0.8-1.3-0.8s-0.9,0.2-1.3,0.6c-0.3-0.4-0.8-0.6-1.3-0.6s-1,0.3-1.3,0.8
				c-0.3,0.4-0.5,1-0.5,1.5C-419,471.2-416.3,473.1-416.1,473.2z"/>
		</g>
	</g>
</g>
<g>
	<path class="st3" d="M-199,228.7c6.2,0,11.2,5.3,11.2,11.7c0,3.6-1.6,7.5-4.2,10.2c-1.5,1.5-2,4.2-2.2,5c0,0.1,0,0.3,0,0.4
		c0,1.8,1.2,3.6,2.9,4.3c0,0,0,0,0.1,0c9.5,3.9,12.9,9.7,14.1,13H-199h-21.9c1.2-3.3,4.5-9.1,14.1-13c0,0,0,0,0.1,0
		c1.7-0.8,2.9-2.5,2.9-4.3c0-0.1,0-0.3,0-0.4c-0.1-0.8-0.7-3.5-2.2-5c-2.6-2.6-4.2-6.5-4.2-10.2C-210.2,234-205.2,228.7-199,228.7
		 M-199,226.2c-7.6,0-13.7,6.3-13.7,14.2c0,4.3,1.9,8.8,4.9,11.9c1,1.1,1.5,3.7,1.5,3.7c0,0.8-0.6,1.7-1.4,2
		c-15.7,6.4-16.3,17.8-16.3,17.8h25h25c0,0-0.6-11.4-16.3-17.8c-0.8-0.4-1.4-1.2-1.4-2c0,0,0.5-2.6,1.5-3.7c3-3.1,4.9-7.6,4.9-11.9
		C-185.3,232.5-191.4,226.3-199,226.2L-199,226.2z"/>
</g>
</svg>
