<?xml version="1.0" encoding="utf-8"?>
<!-- Generator: Adobe Illustrator 19.0.0, SVG Export Plug-In . SVG Version: 6.00 Build 0)  -->
<svg version="1.1" id="Слой_1" xmlns="http://www.w3.org/2000/svg" xmlns:xlink="http://www.w3.org/1999/xlink" x="0px" y="0px"
	 viewBox="-224 226 50 50" style="enable-background:new -224 226 50 50;" xml:space="preserve">
<style type="text/css">
	.st0{display:none;}
	.st1{display:inline;}
	.st2{fill:#fff;}
	.st3{fill:#fff;}
</style>
<g id="Слой_1_1_" class="st0">
	<g id="XMLID_2630_" class="st1">
		<g id="XMLID_2620_">
			<path id="XMLID_4_" d="M-426.6,493.6c-11.4,0-20.7-9.3-20.7-20.7c0-11.4,9.3-20.7,20.7-20.7s20.7,9.3,20.7,20.7
				C-405.9,484.3-415.2,493.6-426.6,493.6z M-426.6,454.2c-10.3,0-18.7,8.4-18.7,18.7c0,10.3,8.4,18.7,18.7,18.7s18.7-8.4,18.7-18.7
				C-407.9,462.6-416.3,454.2-426.6,454.2z"/>
		</g>
		<g id="XMLID_2625_">
			<path id="XMLID_2_" class="st2" d="M-412.5,488.6l12.2,12.7c0.2,0.2,0.4,0.3,0.6,0.3s0.4-0.1,0.6-0.2c0.3-0.3,0.3-0.8,0-1.2
				l-12.2-12.7"/>
			<path id="XMLID_3_" d="M-399.8,501.8c-0.3,0-0.6-0.1-0.8-0.3l-12.1-12.7l0.4-0.3l12.2,12.7c0.2,0.2,0.6,0.2,0.8,0s0.2-0.6,0-0.8
				l-12.2-12.7l0.4-0.3L-399,500c0.4,0.4,0.4,1.1,0,1.5C-399.2,501.7-399.5,501.8-399.8,501.8z"/>
		</g>
	</g>
</g>
<g id="Слой_2" class="st0">
	<g id="XMLID_2633_" class="st1">
		<g id="XMLID_2627_">
			<path id="XMLID_10_" d="M-423,501.7c-13.6,0-24.7-11.1-24.7-24.7c0-13.6,11.1-24.7,24.7-24.7s24.7,11.1,24.7,24.7
				C-398.3,490.6-409.4,501.7-423,501.7z M-423,454.4c-12.4,0-22.6,10.2-22.6,22.6s10.2,22.6,22.6,22.6s22.6-10.1,22.6-22.6
				S-410.6,454.4-423,454.4z"/>
		</g>
		<g id="XMLID_2629_">
			<path id="XMLID_8_" class="st2" d="M-429.8,473.2c0.1,0,0.1,0.1,0.2,0.1s0.2,0,0.2-0.1c0,0,0.7-0.5,1.4-1.2c1-1,1.5-1.9,1.5-2.7
				c0-0.5-0.2-1-0.5-1.5c-0.4-0.5-0.8-0.8-1.3-0.8s-0.9,0.2-1.3,0.6c-0.3-0.4-0.8-0.6-1.3-0.6s-1,0.3-1.3,0.8
				c-0.3,0.4-0.5,1-0.5,1.5C-432.7,471.2-429.9,473.1-429.8,473.2z"/>
		</g>
		<g id="XMLID_2628_">
			<path id="XMLID_7_" class="st2" d="M-423,489.6c4.9,0,9.3-2.8,11.2-7.1c0.3-0.7,0-1.6-0.8-1.9c-0.7-0.3-1.6,0-1.9,0.8
				c-1.4,3.3-4.7,5.4-8.5,5.4s-7.2-2.1-8.5-5.4c-0.2-0.6-0.8-0.9-1.3-0.9c-0.2,0-0.4,0-0.6,0.1c-0.7,0.3-1.1,1.2-0.8,1.9
				C-432.4,486.8-428,489.6-423,489.6z"/>
		</g>
		<g id="XMLID_2626_">
			<path id="XMLID_1_" class="st2" d="M-416.1,473.2c0.1,0,0.1,0.1,0.2,0.1c0.1,0,0.2,0,0.2-0.1c0,0,0.7-0.5,1.4-1.2
				c1-1,1.5-1.9,1.5-2.7c0-0.5-0.2-1-0.5-1.5c-0.4-0.5-0.8-0.8-1.3-0.8s-0.9,0.2-1.3,0.6c-0.3-0.4-0.8-0.6-1.3-0.6s-1,0.3-1.3,0.8
				c-0.3,0.4-0.5,1-0.5,1.5C-419,471.2-416.3,473.1-416.1,473.2z"/>
		</g>
	</g>
</g>
<g id="XMLID_1255_">
	<g id="XMLID_1482_">
		<path class="st3" d="M-180.9,238.8l-2.7,30c0,0,0,0,0,0.1c-0.2,2.5-2.3,4.5-4.9,4.5h-20.8c-2.6,0-4.8-2-5-4.5l-2.8-30H-180.9
			 M-178.1,236.3h-41.7l3.1,32.7c0.3,3.8,3.6,6.8,7.5,6.8h20.8c3.9,0,7.2-3,7.4-6.8L-178.1,236.3L-178.1,236.3z"/>
	</g>
	<g id="XMLID_1259_">
		<path class="st3" d="M-198.9,228.7c3.5,0,6.3,2.8,6.3,6.3c0,0.4,0,0.9-0.1,1.3h-12.4c-0.1-0.4-0.1-0.9-0.1-1.3
			C-205.3,231.5-202.4,228.7-198.9,228.7 M-198.9,226.2c-4.9,0-8.8,4-8.8,8.8c0,1.3,0.3,2.6,0.9,3.8h16c0.5-1.2,0.9-2.4,0.9-3.8
			C-190.1,230.2-194.1,226.2-198.9,226.2L-198.9,226.2z"/>
	</g>
</g>
</svg>
