<?xml version="1.0" encoding="utf-8"?>
<!-- Generator: Adobe Illustrator 19.0.0, SVG Export Plug-In . SVG Version: 6.00 Build 0)  -->
<svg version="1.1" id="Слой_1" xmlns="http://www.w3.org/2000/svg" xmlns:xlink="http://www.w3.org/1999/xlink" x="0px" y="0px"
	 viewBox="-224 226 50 50" style="enable-background:new -224 226 50 50;" xml:space="preserve">
<style type="text/css">
	.st0{display:none;}
	.st1{display:inline;}
	.st2{fill:#fff;}
	.st3{fill:#fff;}
	.st4{fill:none;stroke:#fff;stroke-width:2.5;stroke-linecap:round;stroke-linejoin:round;stroke-miterlimit:10;}
</style>
<g id="Слой_1_1_" class="st0">
	<g id="XMLID_2630_" class="st1">
		<g id="XMLID_2620_">
			<path id="XMLID_4_" d="M-202.6,267.6c-11.4,0-20.7-9.3-20.7-20.7s9.3-20.7,20.7-20.7c11.4,0,20.7,9.3,20.7,20.7
				S-191.2,267.6-202.6,267.6z M-202.6,228.2c-10.3,0-18.7,8.4-18.7,18.7c0,10.3,8.4,18.7,18.7,18.7c10.3,0,18.7-8.4,18.7-18.7
				C-183.9,236.6-192.3,228.2-202.6,228.2z"/>
		</g>
		<g id="XMLID_2625_">
			<path id="XMLID_2_" class="st2" d="M-188.5,262.6l12.2,12.7c0.2,0.2,0.4,0.3,0.6,0.3s0.4-0.1,0.6-0.2c0.3-0.3,0.3-0.8,0-1.2
				l-12.2-12.7"/>
			<path id="XMLID_3_" d="M-175.8,275.8c-0.3,0-0.6-0.1-0.8-0.3l-12.1-12.7l0.4-0.3l12.2,12.7c0.2,0.2,0.6,0.2,0.8,0
				c0.2-0.2,0.2-0.6,0-0.8l-12.2-12.7l0.4-0.3L-175,274c0.4,0.4,0.4,1.1,0,1.5C-175.2,275.7-175.5,275.8-175.8,275.8z"/>
		</g>
	</g>
</g>
<g id="Слой_2" class="st0">
	<g id="XMLID_2633_" class="st1">
		<g id="XMLID_2627_">
			<path id="XMLID_10_" d="M-199,275.7c-13.6,0-24.7-11.1-24.7-24.7s11.1-24.7,24.7-24.7s24.7,11.1,24.7,24.7
				S-185.4,275.7-199,275.7z M-199,228.4c-12.4,0-22.6,10.2-22.6,22.6s10.2,22.6,22.6,22.6s22.6-10.1,22.6-22.6
				S-186.6,228.4-199,228.4z"/>
		</g>
		<g id="XMLID_2629_">
			<path id="XMLID_8_" class="st2" d="M-205.8,247.2c0.1,0,0.1,0.1,0.2,0.1c0.1,0,0.2,0,0.2-0.1c0,0,0.7-0.5,1.4-1.2
				c1-1,1.5-1.9,1.5-2.7c0-0.5-0.2-1-0.5-1.5c-0.4-0.5-0.8-0.8-1.3-0.8s-0.9,0.2-1.3,0.6c-0.3-0.4-0.8-0.6-1.3-0.6s-1,0.3-1.3,0.8
				c-0.3,0.4-0.5,1-0.5,1.5C-208.7,245.2-205.9,247.1-205.8,247.2z"/>
		</g>
		<g id="XMLID_2628_">
			<path id="XMLID_7_" class="st2" d="M-199,263.6c4.9,0,9.3-2.8,11.2-7.1c0.3-0.7,0-1.6-0.8-1.9c-0.7-0.3-1.6,0-1.9,0.8
				c-1.4,3.3-4.7,5.4-8.5,5.4s-7.2-2.1-8.5-5.4c-0.2-0.6-0.8-0.9-1.3-0.9c-0.2,0-0.4,0-0.6,0.1c-0.7,0.3-1.1,1.2-0.8,1.9
				C-208.4,260.8-204,263.6-199,263.6z"/>
		</g>
		<g id="XMLID_2626_">
			<path id="XMLID_1_" class="st2" d="M-192.1,247.2c0.1,0,0.1,0.1,0.2,0.1c0.1,0,0.2,0,0.2-0.1c0,0,0.7-0.5,1.4-1.2
				c1-1,1.5-1.9,1.5-2.7c0-0.5-0.2-1-0.5-1.5c-0.4-0.5-0.8-0.8-1.3-0.8s-0.9,0.2-1.3,0.6c-0.3-0.4-0.8-0.6-1.3-0.6s-1,0.3-1.3,0.8
				c-0.3,0.4-0.5,1-0.5,1.5C-195,245.2-192.3,247.1-192.1,247.2z"/>
		</g>
	</g>
</g>
<g id="XMLID_1494_">
	<g id="XMLID_1696_">
		<path class="st3" d="M-201.8,228.5c10.9,0,19.7,8.8,19.7,19.7c0,10.9-8.8,19.7-19.7,19.7s-19.7-8.8-19.7-19.7
			C-221.5,237.3-212.7,228.5-201.8,228.5 M-201.8,226c-12.3,0-22.2,9.9-22.2,22.2s9.9,22.2,22.2,22.2c12.3,0,22.2-9.9,22.2-22.2
			S-189.6,226-201.8,226L-201.8,226z"/>
	</g>
	<line id="XMLID_1695_" class="st4" x1="-186.6" y1="263.5" x2="-175.4" y2="274.7"/>
</g>
</svg>
