<?xml version="1.0" encoding="utf-8"?>
<!-- Generator: Adobe Illustrator 19.0.0, SVG Export Plug-In . SVG Version: 6.00 Build 0)  -->
<svg version="1.1" id="Слой_1" xmlns="http://www.w3.org/2000/svg" xmlns:xlink="http://www.w3.org/1999/xlink" x="0px" y="0px"
	 viewBox="0 0 1092 479.5" style="enable-background:new 0 0 1092 479.5;" xml:space="preserve">
<style type="text/css">
	.st0{fill:#434244;}
</style>
<g id="XMLID_144_">
	<g id="XMLID_146_">
		<path id="XMLID_158_" d="M117.8,62.7c20.4,0,35.4,6.1,45,18.2c8.4,10.6,12.6,25.4,12.6,44.4v38.1c0,18.6-6.5,34.3-19.6,47.1
			L182.9,353h-39.6l-22.2-126.8c-1,0-2.1,0-3.3,0H96.7V353H60V62.7H117.8z M139.7,125.9c0-15.2-7-22.8-20.9-22.8H96.7v84h22.1
			c5.8,0,10.8-2.2,14.8-6.7c4.1-4.5,6.1-9.8,6.1-16.1V125.9z"/>
		<path id="XMLID_156_" d="M304.2,356c-16.2,0-29.8-6.1-41.1-18.2c-11.2-12.1-16.9-26.9-16.9-44.2V62.7h35.8v230.5
			c0,6.3,2.1,11.6,6.2,16c4.1,4.4,9.1,6.6,14.9,6.6c5.8,0,10.8-2.2,14.8-6.6c4.1-4.4,6.1-9.7,6.1-16V62.7h38.2v230.9
			c0,17.6-5.7,32.4-17.1,44.4C333.9,350,320.2,356,304.2,356z"/>
		<path id="XMLID_154_" d="M468.8,102.5h-38.9V62.7h114.3v39.8h-38.8V353h-36.6V102.5z"/>
		<path id="XMLID_151_" d="M625.5,292.7l-8.9,60.3h-38.1l41.3-290.4h50.4L710.8,353h-38.5l-8.6-60.3H625.5z M644.7,122.8
			l-13.6,131.4h27.1L644.7,122.8z"/>
		<path id="XMLID_149_" d="M784.5,102.5h-38.9V62.7h114.3v39.8h-38.8V353h-36.6V102.5z"/>
		<path id="XMLID_147_" d="M973.9,356c-16.2,0-29.8-6.1-41.1-18.2c-11.2-12.1-16.9-26.9-16.9-44.2V62.7h35.8v230.5
			c0,6.3,2.1,11.6,6.2,16c4.1,4.4,9.1,6.6,14.9,6.6c5.8,0,10.8-2.2,14.8-6.6c4.1-4.4,6.1-9.7,6.1-16V62.7h38.2v230.9
			c0,17.6-5.7,32.4-17.1,44.4C1003.6,350,989.9,356,973.9,356z"/>
	</g>
	<g id="XMLID_145_">
		<g id="XMLID_798_">
			<path id="XMLID_885_" class="st0" d="M76.7,437.1H74v-23.9H62.6v23.9h-2.7v-26.4h16.8V437.1z"/>
			<path id="XMLID_882_" class="st0" d="M99.7,437.8c-1.4,0-2.7-0.4-4-1.2c-1.3-0.8-2.3-2-3.1-3.5v14.1h-2.7v-36.4h2.7v3.9
				c0.8-1.4,1.8-2.5,3.1-3.3c1.3-0.8,2.6-1.3,4-1.3c2.9,0,5.2,1.3,6.9,3.8c1.7,2.5,2.5,5.9,2.5,10c0,4.1-0.8,7.5-2.5,10
				C104.9,436.5,102.6,437.8,99.7,437.8z M99.2,435.3c2.3,0,4-1.1,5.1-3.2c1.2-2.1,1.7-4.9,1.7-8.2c0-3.3-0.6-6-1.7-8.2
				c-1.2-2.1-2.9-3.2-5.1-3.2c-1.3,0-2.6,0.5-3.8,1.4c-1.2,0.9-2.1,2.1-2.7,3.4v13c0.6,1.3,1.5,2.5,2.7,3.4
				C96.6,434.8,97.9,435.3,99.2,435.3z"/>
			<path id="XMLID_879_" class="st0" d="M129.8,437.8c-3.2,0-5.7-1.3-7.5-4c-1.8-2.7-2.7-6-2.7-9.9c0-3.9,0.9-7.2,2.7-9.9
				c1.8-2.6,4.3-4,7.5-4c3.2,0,5.8,1.3,7.5,3.9c1.8,2.6,2.7,5.9,2.7,9.9c0,4-0.9,7.3-2.7,9.9C135.5,436.4,133,437.8,129.8,437.8z
				 M129.8,435.3c2.4,0,4.2-1.1,5.4-3.3c1.2-2.2,1.9-4.9,1.9-8.1c0-3.1-0.6-5.8-1.9-8c-1.2-2.2-3-3.3-5.4-3.3
				c-2.3,0-4.1,1.1-5.4,3.3c-1.2,2.2-1.9,4.9-1.9,8s0.6,5.8,1.9,8.1C125.7,434.2,127.5,435.3,129.8,435.3z"/>
			<path id="XMLID_877_" class="st0" d="M154.7,437.1H152v-26.4h2.7v21.1l11.2-21.1h2.9v26.4H166v-21.5L154.7,437.1z"/>
			<path id="XMLID_875_" class="st0" d="M189.2,437.8c-4.1,0-7.3-1.5-9.5-4.4l1.7-1.6c1.9,2.4,4.5,3.7,7.8,3.7c2,0,3.7-0.5,4.9-1.5
				c1.3-1,1.9-2.3,1.9-4c0-3.4-2.4-5.1-7.2-5.1H184v-2.3h4.9c2,0,3.6-0.5,4.8-1.4c1.3-0.9,1.9-2.2,1.9-3.8c0-1.5-0.6-2.7-1.9-3.6
				c-1.3-0.9-2.9-1.3-4.9-1.3c-3,0-5.3,1.2-6.9,3.5l-1.7-1.6c2-2.8,4.9-4.3,8.7-4.3c2.8,0,5.1,0.6,7,1.9c1.8,1.3,2.8,3,2.8,5.1
				c0,1.6-0.6,3.1-1.8,4.3c-1.2,1.2-2.6,2-4.2,2.3c1.7,0.2,3.2,0.9,4.4,2c1.3,1.1,1.9,2.6,1.9,4.4c0,2.2-0.9,4-2.6,5.5
				C194.6,437,192.3,437.8,189.2,437.8z"/>
			<path id="XMLID_871_" class="st0" d="M221,437.1h-10.2v-26.4h10c2.1,0,3.8,0.6,5.1,1.8c1.2,1.2,1.8,2.9,1.8,5c0,3.1-1.3,5-3.9,6
				c1.3,0.4,2.3,1.2,3.1,2.4c0.8,1.2,1.2,2.6,1.2,4.1c0,2.3-0.6,4-1.8,5.3C225.1,436.5,223.4,437.1,221,437.1z M220.4,422.4
				c1.5,0,2.6-0.4,3.3-1.3c0.7-0.9,1.1-2,1.1-3.4c0-1.4-0.4-2.5-1.1-3.4c-0.7-0.9-1.8-1.3-3.3-1.3h-6.8v9.3H220.4z M220.6,434.8
				c1.6,0,2.7-0.4,3.5-1.3c0.8-0.9,1.2-2.1,1.2-3.7c0-1.4-0.4-2.6-1.2-3.6c-0.8-1-2-1.5-3.5-1.5h-7v10H220.6z"/>
			<path id="XMLID_868_" class="st0" d="M249.6,437.8c-3.2,0-5.7-1.3-7.5-4c-1.8-2.7-2.7-6-2.7-9.9c0-3.9,0.9-7.2,2.7-9.9
				c1.8-2.6,4.3-4,7.5-4c3.2,0,5.8,1.3,7.5,3.9c1.8,2.6,2.7,5.9,2.7,9.9c0,4-0.9,7.3-2.7,9.9C255.3,436.4,252.8,437.8,249.6,437.8z
				 M249.6,435.3c2.4,0,4.2-1.1,5.4-3.3c1.2-2.2,1.9-4.9,1.9-8.1c0-3.1-0.6-5.8-1.9-8c-1.2-2.2-3-3.3-5.4-3.3
				c-2.3,0-4.1,1.1-5.4,3.3c-1.2,2.2-1.9,4.9-1.9,8s0.6,5.8,1.9,8.1C245.5,434.2,247.2,435.3,249.6,435.3z"/>
			<path id="XMLID_865_" class="st0" d="M268.9,443.8v-9c1.3-0.2,2.3-1,3.1-2.4s1.3-4.1,1.8-8.2l1.4-13.5h13.4v23.9h3.2v9.2h-2.8
				v-6.7h-17.3v6.7H268.9z M277.7,413.2l-1.2,11.4c-0.5,5.3-1.7,8.6-3.4,10h12.7v-21.5H277.7z"/>
			<path id="XMLID_863_" class="st0" d="M311.9,437.8c-3.2,0-5.7-1.3-7.6-4c-1.9-2.6-2.8-5.9-2.8-9.9c0-4,0.9-7.3,2.8-9.9
				c1.9-2.6,4.4-3.9,7.6-3.9c2.9,0,5.3,1.2,7.2,3.5l-1.6,1.9c-1.4-1.9-3.2-2.9-5.4-2.9c-2.4,0-4.3,1.1-5.6,3.2c-1.3,2.2-2,4.9-2,8.1
				c0,3.2,0.7,5.9,2,8.1c1.3,2.2,3.2,3.3,5.6,3.3c2.1,0,3.9-1,5.4-2.9l1.6,1.9C317.3,436.6,314.9,437.8,311.9,437.8z"/>
			<path id="XMLID_861_" class="st0" d="M336.5,437.1h-2.8v-23.9h-6.2v-2.5h15.1v2.5h-6.2V437.1z"/>
			<path id="XMLID_857_" class="st0" d="M363.6,437.1h-10.2v-26.4h10c2.1,0,3.8,0.6,5.1,1.8c1.2,1.2,1.8,2.9,1.8,5
				c0,3.1-1.3,5-3.9,6c1.3,0.4,2.3,1.2,3.1,2.4c0.8,1.2,1.2,2.6,1.2,4.1c0,2.3-0.6,4-1.8,5.3C367.7,436.5,366,437.1,363.6,437.1z
				 M363,422.4c1.5,0,2.6-0.4,3.3-1.3c0.7-0.9,1.1-2,1.1-3.4c0-1.4-0.4-2.5-1.1-3.4c-0.7-0.9-1.8-1.3-3.3-1.3h-6.8v9.3H363z
				 M363.2,434.8c1.6,0,2.7-0.4,3.5-1.3c0.8-0.9,1.2-2.1,1.2-3.7c0-1.4-0.4-2.6-1.2-3.6c-0.8-1-2-1.5-3.5-1.5h-7v10H363.2z"/>
			<path id="XMLID_854_" class="st0" d="M392.2,437.8c-3.2,0-5.7-1.3-7.5-4c-1.8-2.7-2.7-6-2.7-9.9c0-3.9,0.9-7.2,2.7-9.9
				c1.8-2.6,4.3-4,7.5-4c3.2,0,5.8,1.3,7.5,3.9c1.8,2.6,2.7,5.9,2.7,9.9c0,4-0.9,7.3-2.7,9.9C397.9,436.4,395.4,437.8,392.2,437.8z
				 M392.2,435.3c2.4,0,4.2-1.1,5.4-3.3c1.2-2.2,1.9-4.9,1.9-8.1c0-3.1-0.6-5.8-1.9-8c-1.2-2.2-3-3.3-5.4-3.3
				c-2.3,0-4.1,1.1-5.4,3.3c-1.2,2.2-1.9,4.9-1.9,8s0.6,5.8,1.9,8.1C388.1,434.2,389.8,435.3,392.2,435.3z"/>
			<path id="XMLID_852_" class="st0" d="M448.5,437.1h-2.7v-23.9h-11.4v23.9h-2.7v-26.4h16.8V437.1z"/>
			<path id="XMLID_849_" class="st0" d="M471.3,437.8c-3.3,0-6-1.3-7.9-3.9s-2.9-5.9-2.9-10c0-3.9,0.9-7.2,2.8-9.9
				c1.9-2.6,4.3-4,7.4-4c3.2,0,5.7,1.3,7.4,3.9c1.7,2.6,2.6,5.9,2.6,9.9v0.9h-17.3c0.1,3.1,0.8,5.6,2.3,7.6c1.4,2,3.4,3,5.8,3
				c2.6,0,4.7-1.2,6.5-3.5l1.7,1.6C477.5,436.3,474.7,437.8,471.3,437.8z M477.9,422.6c0-2.7-0.7-5-1.9-7.1c-1.2-2.1-3-3.1-5.4-3.1
				c-1.6,0-3,0.6-4.1,1.7c-1.1,1.1-1.9,2.4-2.4,3.9c-0.5,1.5-0.7,3-0.8,4.6H477.9z"/>
			<path id="XMLID_846_" class="st0" d="M502.2,437.8c-1.4,0-2.7-0.4-4-1.2c-1.3-0.8-2.3-2-3.1-3.5v14.1h-2.7v-36.4h2.7v3.9
				c0.8-1.4,1.8-2.5,3.1-3.3c1.3-0.8,2.6-1.3,4-1.3c2.9,0,5.2,1.3,6.9,3.8c1.7,2.5,2.5,5.9,2.5,10c0,4.1-0.8,7.5-2.5,10
				C507.4,436.5,505.1,437.8,502.2,437.8z M501.7,435.3c2.3,0,4-1.1,5.1-3.2c1.2-2.1,1.7-4.9,1.7-8.2c0-3.3-0.6-6-1.7-8.2
				c-1.2-2.1-2.9-3.2-5.1-3.2c-1.3,0-2.6,0.5-3.8,1.4c-1.2,0.9-2.1,2.1-2.7,3.4v13c0.6,1.3,1.5,2.5,2.7,3.4
				C499.1,434.8,500.4,435.3,501.7,435.3z"/>
			<path id="XMLID_843_" class="st0" d="M533,437.8c-3.3,0-6-1.3-7.9-3.9c-1.9-2.6-2.9-5.9-2.9-10c0-3.9,0.9-7.2,2.8-9.9
				c1.9-2.6,4.3-4,7.4-4c3.2,0,5.7,1.3,7.4,3.9c1.7,2.6,2.6,5.9,2.6,9.9v0.9h-17.3c0.1,3.1,0.8,5.6,2.3,7.6c1.4,2,3.4,3,5.8,3
				c2.6,0,4.7-1.2,6.5-3.5l1.7,1.6C539.2,436.3,536.4,437.8,533,437.8z M539.6,422.6c0-2.7-0.7-5-1.9-7.1c-1.2-2.1-3-3.1-5.4-3.1
				c-1.6,0-3,0.6-4.1,1.7c-1.1,1.1-1.9,2.4-2.4,3.9s-0.7,3-0.8,4.6H539.6z"/>
			<path id="XMLID_839_" class="st0" d="M564.3,437.1h-10.2v-26.4h10c2.1,0,3.8,0.6,5.1,1.8c1.2,1.2,1.8,2.9,1.8,5
				c0,3.1-1.3,5-3.9,6c1.3,0.4,2.3,1.2,3.1,2.4c0.8,1.2,1.2,2.6,1.2,4.1c0,2.3-0.6,4-1.8,5.3C568.4,436.5,566.6,437.1,564.3,437.1z
				 M563.7,422.4c1.5,0,2.6-0.4,3.3-1.3c0.7-0.9,1.1-2,1.1-3.4c0-1.4-0.4-2.5-1.1-3.4c-0.7-0.9-1.8-1.3-3.3-1.3h-6.8v9.3H563.7z
				 M563.9,434.8c1.6,0,2.7-0.4,3.5-1.3c0.8-0.9,1.2-2.1,1.2-3.7c0-1.4-0.4-2.6-1.2-3.6c-0.8-1-2-1.5-3.5-1.5h-7v10H563.9z"/>
			<path id="XMLID_836_" class="st0" d="M592.9,437.8c-3.2,0-5.7-1.3-7.5-4c-1.8-2.7-2.7-6-2.7-9.9c0-3.9,0.9-7.2,2.7-9.9
				c1.8-2.6,4.3-4,7.5-4c3.2,0,5.8,1.3,7.5,3.9c1.8,2.6,2.7,5.9,2.7,9.9c0,4-0.9,7.3-2.7,9.9C598.6,436.4,596.1,437.8,592.9,437.8z
				 M592.9,435.3c2.4,0,4.2-1.1,5.4-3.3c1.2-2.2,1.9-4.9,1.9-8.1c0-3.1-0.6-5.8-1.9-8c-1.2-2.2-3-3.3-5.4-3.3
				c-2.3,0-4.1,1.1-5.4,3.3c-1.2,2.2-1.9,4.9-1.9,8s0.6,5.8,1.9,8.1C588.8,434.2,590.5,435.3,592.9,435.3z"/>
			<path id="XMLID_833_" class="st0" d="M612.2,443.8v-9c1.3-0.2,2.3-1,3.1-2.4s1.3-4.1,1.8-8.2l1.4-13.5h13.4v23.9h3.2v9.2h-2.8
				v-6.7H615v6.7H612.2z M621,413.2l-1.2,11.4c-0.5,5.3-1.7,8.6-3.4,10h12.7v-21.5H621z"/>
			<path id="XMLID_831_" class="st0" d="M648.8,437.1H646v-26.4h2.7v11.5h11.4v-11.5h2.7v26.4h-2.7v-12.4h-11.4V437.1z"/>
			<path id="XMLID_827_" class="st0" d="M676.1,410.7h2.7v10.8h6.9c2.4,0,4.3,0.7,5.6,2.2c1.3,1.5,2,3.3,2,5.6s-0.7,4.1-2,5.6
				c-1.3,1.5-3.2,2.2-5.6,2.2h-9.7V410.7z M685.5,423.9h-6.7v10.8h6.7c1.6,0,2.8-0.5,3.6-1.5c0.8-1,1.2-2.3,1.2-3.9
				c0-1.6-0.4-2.9-1.2-3.9C688.3,424.4,687.1,423.9,685.5,423.9z M700.3,437.1h-2.8v-26.4h2.8V437.1z"/>
			<path id="XMLID_825_" class="st0" d="M730.1,437.1h-3.2l-6.7-11.4l-6.7,11.4h-3.1l8.1-13.4l-7.7-12.9h3.2l6.2,10.8l6.2-10.8h3.2
				l-7.7,12.9L730.1,437.1z"/>
			<path id="XMLID_823_" class="st0" d="M764.2,437.1h-2.8v-23.9h-6.2v-2.5h15.1v2.5h-6.2V437.1z"/>
			<path id="XMLID_820_" class="st0" d="M797.4,437.1h-2.8v-2.9c-1.7,2.4-4,3.6-6.9,3.6c-2.2,0-4.1-0.8-5.6-2.4
				c-1.5-1.6-2.3-3.7-2.3-6.4c0-2.7,0.8-4.8,2.3-6.4c1.5-1.6,3.4-2.4,5.6-2.4c2.9,0,5.3,1.2,6.9,3.5v-5.1c0-2-0.5-3.5-1.4-4.5
				c-1-1.1-2.3-1.6-4.1-1.6c-2.5,0-4.8,1.1-6.7,3.4l-1.4-2c2.3-2.5,5.1-3.8,8.4-3.8c2.6,0,4.6,0.7,6,2.1c1.4,1.4,2.1,3.5,2.1,6.2
				V437.1z M788.5,435.6c2.8,0,4.8-1.2,6.2-3.7v-5.8c-1.3-2.5-3.4-3.7-6.2-3.7c-1.8,0-3.2,0.6-4.2,1.9c-1,1.3-1.6,2.8-1.6,4.7
				c0,1.9,0.5,3.4,1.6,4.7C785.3,435,786.7,435.6,788.5,435.6z"/>
			<path id="XMLID_818_" class="st0" d="M817.1,437.1h-2.8v-23.9h-6.2v-2.5h15.1v2.5h-6.2V437.1z"/>
			<path id="XMLID_816_" class="st0" d="M832.4,447.4l0.5-2.5c0.5,0.3,1.1,0.4,1.7,0.4c0.8,0,1.4-0.2,1.9-0.7
				c0.5-0.4,0.9-1.2,1.3-2.3l1.6-4.7l-8.7-26.9h3.1l7.1,23l7.1-23h3.1l-10.6,32.4c-1.1,3.1-2.9,4.7-5.7,4.7
				C833.8,447.8,833,447.7,832.4,447.4z"/>
			<path id="XMLID_814_" class="st0" d="M863.7,437.1h-2.8v-26.4h2.7v21.1l11.2-21.1h2.9v26.4H875v-21.5L863.7,437.1z"/>
			<path id="XMLID_811_" class="st0" d="M900.7,437.8c-1.4,0-2.7-0.4-4-1.2c-1.3-0.8-2.3-2-3.1-3.5v14.1h-2.7v-36.4h2.7v3.9
				c0.8-1.4,1.8-2.5,3.1-3.3c1.3-0.8,2.6-1.3,4-1.3c2.9,0,5.2,1.3,6.9,3.8c1.7,2.5,2.5,5.9,2.5,10c0,4.1-0.8,7.5-2.5,10
				C905.9,436.5,903.6,437.8,900.7,437.8z M900.2,435.3c2.3,0,4-1.1,5.1-3.2c1.2-2.1,1.7-4.9,1.7-8.2c0-3.3-0.6-6-1.7-8.2
				c-1.2-2.1-2.9-3.2-5.1-3.2c-1.3,0-2.6,0.5-3.8,1.4s-2.1,2.1-2.7,3.4v13c0.6,1.3,1.5,2.5,2.7,3.4
				C897.6,434.8,898.9,435.3,900.2,435.3z"/>
			<path id="XMLID_808_" class="st0" d="M930.8,437.8c-3.2,0-5.7-1.3-7.5-4c-1.8-2.7-2.7-6-2.7-9.9c0-3.9,0.9-7.2,2.7-9.9
				c1.8-2.6,4.3-4,7.5-4c3.2,0,5.8,1.3,7.5,3.9c1.8,2.6,2.7,5.9,2.7,9.9c0,4-0.9,7.3-2.7,9.9C936.6,436.4,934,437.8,930.8,437.8z
				 M930.8,435.3c2.4,0,4.2-1.1,5.4-3.3c1.2-2.2,1.9-4.9,1.9-8.1c0-3.1-0.6-5.8-1.9-8c-1.2-2.2-3-3.3-5.4-3.3
				c-2.3,0-4.1,1.1-5.4,3.3c-1.2,2.2-1.9,4.9-1.9,8s0.6,5.8,1.9,8.1C926.7,434.2,928.5,435.3,930.8,435.3z"/>
			<path id="XMLID_804_" class="st0" d="M963.1,437.1H953v-26.4h10c2.1,0,3.8,0.6,5.1,1.8c1.2,1.2,1.8,2.9,1.8,5c0,3.1-1.3,5-3.9,6
				c1.3,0.4,2.3,1.2,3.1,2.4c0.8,1.2,1.2,2.6,1.2,4.1c0,2.3-0.6,4-1.8,5.3C967.2,436.5,965.4,437.1,963.1,437.1z M962.5,422.4
				c1.5,0,2.6-0.4,3.3-1.3c0.7-0.9,1.1-2,1.1-3.4c0-1.4-0.4-2.5-1.1-3.4c-0.7-0.9-1.8-1.3-3.3-1.3h-6.8v9.3H962.5z M962.7,434.8
				c1.6,0,2.7-0.4,3.5-1.3c0.8-0.9,1.2-2.1,1.2-3.7c0-1.4-0.4-2.6-1.2-3.6c-0.8-1-2-1.5-3.5-1.5h-7v10H962.7z"/>
			<path id="XMLID_801_" class="st0" d="M991.7,437.8c-3.2,0-5.7-1.3-7.5-4c-1.8-2.7-2.7-6-2.7-9.9c0-3.9,0.9-7.2,2.7-9.9
				c1.8-2.6,4.3-4,7.5-4c3.2,0,5.8,1.3,7.5,3.9c1.8,2.6,2.7,5.9,2.7,9.9c0,4-0.9,7.3-2.7,9.9C997.4,436.4,994.9,437.8,991.7,437.8z
				 M991.7,435.3c2.4,0,4.2-1.1,5.4-3.3c1.2-2.2,1.9-4.9,1.9-8.1c0-3.1-0.6-5.8-1.9-8c-1.2-2.2-3-3.3-5.4-3.3
				c-2.3,0-4.1,1.1-5.4,3.3c-1.2,2.2-1.9,4.9-1.9,8s0.6,5.8,1.9,8.1C987.6,434.2,989.3,435.3,991.7,435.3z"/>
			<path id="XMLID_799_" class="st0" d="M1032,437.1h-3.3l-8-12.6l-4.1,5.1v7.4h-2.7v-26.4h2.7v15.3l12.2-15.3h3.3l-9.6,11.9
				L1032,437.1z"/>
		</g>
	</g>
</g>
</svg>
